<?xml version="1.0" standalone="no"?>
<!DOCTYPE svg PUBLIC "-//W3C//DTD SVG 20010904//EN"
 "http://www.w3.org/TR/2001/REC-SVG-20010904/DTD/svg10.dtd">
<svg version="1.0" xmlns="http://www.w3.org/2000/svg"
 width="700.000000pt" height="700.000000pt" viewBox="0 0 700.000000 700.000000"
 preserveAspectRatio="xMidYMid meet">
<metadata>
Created by potrace 1.11, written by Peter Selinger 2001-2013
</metadata>
<g transform="translate(0.000000,700.000000) scale(0.100000,-0.100000)"
fill="#000000" stroke="none">
<path d="M3537 6504 c-1 -1 -49 -5 -107 -8 -58 -3 -116 -8 -130 -11 -14 -3
-47 -8 -75 -11 -96 -12 -351 -92 -440 -138 -17 -9 -33 -16 -37 -16 -4 0 -51
-25 -105 -56 -381 -218 -671 -562 -821 -974 -87 -240 -106 -378 -106 -800 0
-370 8 -461 59 -652 171 -642 672 -1139 1315 -1304 52 -14 111 -27 130 -29 19
-3 46 -7 59 -10 79 -15 256 -18 1306 -20 803 -2 1188 -6 1250 -14 330 -42 594
-145 855 -333 47 -34 87 -65 90 -68 16 -20 132 -90 149 -90 29 0 50 37 58 106
10 77 10 2730 1 2808 -35 279 -133 550 -281 777 -187 289 -429 503 -739 656
-60 29 -114 53 -121 53 -7 0 -17 4 -23 8 -14 13 -170 61 -204 64 -3 0 -15 4
-28 9 -12 5 -53 13 -90 19 -37 6 -78 13 -92 16 -67 13 -280 16 -1043 18 -456
0 -829 0 -830 0z"/>
<path d="M1258 4936 c-617 -209 -1073 -714 -1212 -1341 -44 -194 -44 -209 -43
-1585 0 -1332 3 -1455 37 -1495 29 -35 52 -23 281 147 98 73 247 156 373 208
100 42 293 96 376 106 25 3 56 7 69 9 85 15 308 18 1336 20 1169 2 1185 3
1373 41 100 20 288 84 380 128 40 20 75 36 77 36 10 0 186 112 246 157 166
124 319 285 424 448 32 50 66 101 75 115 19 29 70 134 111 232 l28 68 -907 1
c-499 0 -927 2 -952 3 -413 27 -797 169 -1127 418 -164 124 -333 302 -454 478
-156 226 -283 537 -324 790 -4 25 -9 53 -11 64 -19 105 -27 768 -11 924 6 56
5 72 -5 71 -7 0 -70 -19 -140 -43z"/>
</g>
</svg>
