<?xml version="1.0" encoding="utf-8"?>
<!-- Generator: Adobe Illustrator 16.0.0, SVG Export Plug-In . SVG Version: 6.00 Build 0)  -->
<!DOCTYPE svg PUBLIC "-//W3C//DTD SVG 1.1//EN" "http://www.w3.org/Graphics/SVG/1.1/DTD/svg11.dtd">
<svg version="1.1" id="Layer_1" xmlns="http://www.w3.org/2000/svg" xmlns:xlink="http://www.w3.org/1999/xlink" x="0px" y="0px"
	 width="1024px" height="1024px" viewBox="0 0 1024 1024" enable-background="new 0 0 1024 1024" xml:space="preserve">
<path d="M1023.91,969.71V55.38c0-25.8-20.92-46.71-46.72-46.71h-83.32h-763.9H46.63c-25.71,0-46.56,20.8-46.69,46.49v831.22v83.43
	c0.03,25.74,20.92,46.63,46.69,46.63h516.8v-404.6H430.04V472.44h133.39V321.06c0-90.72,82.26-151.67,148.63-151.67h149.31v126.82
	H792.5c-33.95,0-79.2,27.56-79.2,61.45v114.78h134.53v139.39H713.3v404.6h180.58h83.32C1003,1016.43,1023.91,995.51,1023.91,969.71z
	"/>
</svg>
