<?xml version="1.0" encoding="utf-8"?>
<!-- Generator: Adobe Illustrator 16.0.0, SVG Export Plug-In . SVG Version: 6.00 Build 0)  -->
<!DOCTYPE svg PUBLIC "-//W3C//DTD SVG 1.1//EN" "http://www.w3.org/Graphics/SVG/1.1/DTD/svg11.dtd">
<svg version="1.1" id="Layer_1" xmlns="http://www.w3.org/2000/svg" xmlns:xlink="http://www.w3.org/1999/xlink" x="0px" y="0px"
	 width="1024px" height="1024px" viewBox="0 0 1024 1024" enable-background="new 0 0 1024 1024" xml:space="preserve">
<path fill-rule="evenodd" clip-rule="evenodd" d="M132.04,0.55h761.13c72.29,0,131.43,59.14,131.43,131.43v761.14
	c0,72.29-59.14,131.43-131.43,131.43H132.04c-72.29,0-131.44-59.14-131.44-131.43V131.98C0.61,59.69,59.75,0.55,132.04,0.55
	L132.04,0.55z M746.55,114.32c-25.36,0-46.1,20.74-46.1,46.1v110.34c0,25.36,20.73,46.1,46.1,46.1h115.74
	c25.35,0,46.1-20.74,46.1-46.1V160.42c0-25.36-20.74-46.1-46.1-46.1H746.55L746.55,114.32z M908.87,433.59h-90.14
	c8.53,27.85,13.14,57.33,13.14,87.86c0,170.33-142.51,308.39-318.3,308.39c-175.78,0-318.28-138.07-318.28-308.39
	c0-30.53,4.6-60.01,13.13-87.86h-94.05v432.55c0,22.38,18.32,40.71,40.71,40.71h713.08c22.38,0,40.71-18.32,40.71-40.71V433.59
	L908.87,433.59z M513.58,311.06c-113.57,0-205.66,89.22-205.66,199.27c0,110.05,92.08,199.27,205.66,199.27
	c113.58,0,205.66-89.21,205.66-199.27C719.24,400.28,627.16,311.06,513.58,311.06z"/>
</svg>
