<?xml version="1.0" encoding="utf-8"?>
<!-- Generator: Adobe Illustrator 16.0.0, SVG Export Plug-In . SVG Version: 6.00 Build 0)  -->
<!DOCTYPE svg PUBLIC "-//W3C//DTD SVG 1.1//EN" "http://www.w3.org/Graphics/SVG/1.1/DTD/svg11.dtd">
<svg version="1.1" id="Layer_3" xmlns="http://www.w3.org/2000/svg" xmlns:xlink="http://www.w3.org/1999/xlink" x="0px" y="0px"
	 width="6452.433px" height="778.274px" viewBox="377.408 82.885 6452.433 778.274"
	 enable-background="new 377.408 82.885 6452.433 778.274" xml:space="preserve">
<path fill="#6C6C6C" d="M1665.279,665.75c-9.408,6.135-19.455,10.358-29.922,12.896c-10.574,2.543-21.045,3.713-31.619,3.713
	c-18.821,0-35.105-5.608-48.64-16.609c-13.641-11.102-23.157-25.479-28.657-43.243c-7.72,18.284-19.666,32.989-35.74,44.091
	c-16.071,11.102-34.156,16.595-54.031,16.595c-17.239,0-32.57-3.056-46.108-9.085c-13.641-6.134-25.268-14.387-34.892-24.96
	c-9.729-10.573-17.235-22.845-22.42-37.008c-5.287-14.173-7.93-29.507-7.93-46.214V381.303h59.852v179.656
	c0,19.986,5.389,36.481,16.172,49.483c10.788,13.013,26.756,19.566,47.797,19.566c9.94,0,19.353-2.217,28.233-6.654
	c8.884-4.445,16.604-10.689,23.265-18.727c6.662-8.029,11.948-17.44,15.756-28.229c3.909-10.781,5.814-22.63,5.814-35.318V381.417
	h59.852v204.607c0,12.163,3.492,22.203,10.363,29.928c6.873,7.709,16.706,11.62,29.504,11.62c17.125,0,31.614-5.493,43.246-16.595
	v54.772H1665.279z"/>
<path fill="#6C6C6C" d="M2040.313,665.75c-9.404,6.135-19.455,10.358-29.917,12.896c-10.575,2.543-21.045,3.713-31.618,3.713
	c-12.797,0-24.108-2.545-34.047-7.511c-9.944-4.973-18.616-11.637-25.805-19.994c-7.188-8.352-12.583-17.977-16.177-29.079
	c-3.595-11.1-5.391-22.416-5.391-34.044v-96.436c0-20.521-5.394-37.329-16.181-50.332c-10.785-13.011-26.752-19.567-47.796-19.567
	c-9.939,0-19.455,2.333-28.23,7.083c-8.881,4.76-16.601,10.997-23.268,18.721c-6.658,7.713-11.944,16.916-15.75,27.489
	c-3.916,10.575-5.821,21.893-5.821,34.056v162.209h-59.845V381.302h59.532v43.247c8.881-16.068,20.834-28.543,35.741-37.434
	c15.012-8.881,31.617-13.32,49.912-13.32c17.128,0,32.569,2.959,46.1,8.775c13.539,5.813,25.273,13.961,34.892,24.534
	c9.734,10.575,17.134,22.845,22.421,37.013c5.286,14.165,7.93,29.502,7.93,46.097v95.589c0,12.163,3.599,22.21,10.787,29.925
	c7.188,7.725,17.128,11.638,29.926,11.638c16.599,0,30.771-5.501,42.402-16.603v54.986H2040.313z"/>
<path fill="#6C6C6C" d="M2461.59,665.75c-9.414,6.135-19.458,10.572-29.926,13.323c-10.574,2.744-21.045,4.119-31.619,4.119
	c-19.456,0-36.058-5.913-49.909-17.862c-13.852-11.949-23.053-26.756-27.492-44.521c-12.799,19.979-28.66,35.215-47.797,45.788
	c-19.139,10.573-40.29,15.762-63.658,15.762c-21.572,0-41.449-4.134-59.429-12.483c-17.973-8.359-33.521-19.353-46.524-33.305
	c-13.007-13.858-23.156-30.04-30.351-48.651c-7.189-18.604-10.787-38.384-10.787-59.424c0-21.037,3.598-40.926,10.787-59.428
	c7.195-18.612,17.344-34.896,30.351-49.062c13.003-14.167,28.55-25.384,46.524-33.727c17.978-8.354,37.857-12.483,59.429-12.483
	c22.206,0,42.399,4.759,60.696,14.165c18.296,9.421,33.835,23.269,46.528,41.566v-48.224h59.845v204.616
	c0,12.155,3.491,22.309,10.369,30.347c6.975,8.039,16.812,12.057,29.498,12.057c16.076,0,30.458-5.813,43.251-17.45v54.879
	L2461.59,665.75L2461.59,665.75z M2318.518,501.954c0-1.051-0.848-4.015-2.537-8.774c-1.691-4.762-3.067-7.613-4.125-8.776
	c-7.717-17.763-19.665-31.83-35.741-42.403c-16.072-10.574-33.837-15.757-53.19-15.757c-13.851,0-26.858,2.747-39.121,8.354
	c-12.163,5.505-22.736,13.012-31.617,22.42c-8.882,9.405-15.754,20.196-20.832,32.467c-4.971,12.151-7.511,25.269-7.511,39.124
	c0,13.322,2.541,26.216,7.511,38.693c4.971,12.484,11.949,23.264,20.832,32.47c8.881,9.093,19.351,16.495,31.617,21.989
	c12.16,5.501,25.166,8.358,39.121,8.358c19.353,0,37.119-5.288,53.19-15.762c16.074-10.575,28.023-24.419,35.741-41.555
	c1.058-1.047,2.537-4.116,4.125-9.198c1.688-4.965,2.537-8.03,2.537-9.197V501.954z"/>
<path fill="#6C6C6C" d="M2946.958,526.064c0,21.049-4.122,41.135-12.477,60.274c-8.353,19.138-19.559,35.74-33.734,49.913
	c-14.168,14.165-30.659,25.379-49.484,33.723c-18.826,8.356-39.128,12.484-60.7,12.484c-21.033,0-41.024-4.019-59.841-12.058
	c-18.825-8.037-35.213-19.031-49.067-32.883c-13.848-13.857-24.845-30.246-32.88-49.071c-8.044-18.81-12.063-38.806-12.063-59.841
	V84.49h59.853v444.116c0,13.32,2.643,25.798,7.93,37.433c5.288,11.629,12.374,21.782,21.251,30.34
	c8.882,8.571,19.146,15.555,30.774,20.841c11.627,5.287,24.112,7.933,37.434,7.933c13.847,0,26.653-2.646,38.28-7.933
	c11.628-5.286,21.776-12.369,30.35-21.263c8.562-8.884,15.334-19.344,20.403-31.606c4.967-12.171,7.507-24.963,7.507-38.283
	c0-13.855-2.746-28.128-8.354-42.824c-5.493-14.702-14.692-25.588-27.485-32.889l-4.134,5.814
	c-3.273,7.197-8.354,12.901-15.013,17.03c-6.662,4.118-13.847,6.237-21.674,6.237c-13.847,0-25.912-5.08-36.164-15.441
	c-10.253-10.253-15.436-22.313-15.436-36.16c0-15.544,6.134-28.555,18.297-39.129c12.156-10.574,25.797-15.757,40.707-15.757
	c20.516,0,38.704,4.439,54.462,13.332c15.745,8.882,28.964,20.506,39.537,34.893c10.573,14.375,18.399,30.773,23.69,49.062
	C2944.314,488.633,2946.958,507.241,2946.958,526.064z"/>
<path fill="#6C6C6C" d="M3357.68,665.75c-9.411,6.135-19.458,10.358-29.926,12.896c-10.575,2.543-21.049,3.713-31.622,3.713
	c-18.817,0-35.098-5.608-48.637-16.609c-13.641-11.102-23.161-25.479-28.658-43.243c-7.828,18.284-19.669,32.989-35.737,44.091
	c-16.077,11.102-34.163,16.595-54.037,16.595c-17.236,0-32.569-3.056-46.212-9.085c-13.641-6.134-25.269-14.387-34.893-24.96
	c-9.73-10.573-17.236-22.845-22.42-37.008c-5.287-14.173-7.932-29.507-7.932-46.214V381.303h59.854v179.656
	c0,19.986,5.391,36.481,16.181,49.483c10.78,13.013,26.756,19.566,47.788,19.566c9.944,0,19.352-2.217,28.234-6.654
	c8.889-4.445,16.602-10.689,23.264-18.727c6.662-8.029,11.949-17.44,15.758-28.229c3.916-10.781,5.813-22.63,5.813-35.318V381.417
	h59.85v204.607c0,12.163,3.489,22.203,10.358,29.928c6.877,7.709,16.709,11.62,29.507,11.62c17.243,0,31.614-5.493,43.258-16.595
	v54.772H3357.68z"/>
<path fill="#6C6C6C" d="M3497.41,612.559c17.236,11.638,36.588,17.45,58.262,17.45c16.074,0,32.042-1.911,47.797-5.813
	c15.86-3.913,30.031-10.788,42.822-20.835v59.852c-13.859,7.189-28.649,12.163-44.512,15.012
	c-15.762,2.75-31.201,4.134-46.108,4.134c-22.202,0-43.143-3.713-62.809-11.216c-19.674-7.51-36.901-18.186-51.608-32.043
	c-14.697-13.851-26.32-30.353-34.893-49.484c-8.564-19.14-12.896-40.08-12.896-62.815c0-20.506,4.01-40.064,12.049-58.569
	c8.044-18.619,18.824-34.793,32.461-48.648c13.538-13.847,29.507-24.959,47.797-33.303c18.299-8.354,37.748-12.484,58.271-12.484
	c26.641,0,50.53,5.711,71.901,17.025c21.353,11.422,40.079,27.593,56.146,48.637L3497.41,612.559z M3596.378,446.235
	c-15.547-12.798-33.525-19.146-54.029-19.146c-13.859,0-26.648,2.645-38.276,7.93c-11.629,5.288-21.577,12.484-29.929,21.572
	c-8.357,9.202-14.697,19.879-19.138,32.042c-4.439,12.155-6.671,24.962-6.671,38.28c0,19.983,5.286,37.743,15.861,53.183
	L3596.378,446.235z"/>
<path fill="#6C6C6C" d="M4081.984,665.75c-9.42,6.135-19.459,10.358-29.927,12.896c-10.575,2.543-21.049,3.713-31.623,3.713
	c-12.796,0-24.112-2.545-34.044-7.511c-9.947-4.973-18.611-11.637-25.809-19.994c-7.181-8.352-12.574-17.977-16.181-29.079
	c-3.59-11.1-5.386-22.416-5.386-34.044v-96.436c0-20.521-5.395-37.329-16.174-50.332c-10.787-13.011-26.756-19.567-47.796-19.567
	c-9.947,0-19.459,2.333-28.238,7.083c-8.877,4.76-16.601,10.997-23.264,18.721c-6.663,7.713-11.949,16.916-15.753,27.489
	c-3.905,10.575-5.814,21.893-5.814,34.056v162.209h-59.853V381.302h59.853v43.247c8.877-16.068,20.826-28.543,35.732-37.434
	c15.021-8.881,31.623-13.32,49.92-13.32c17.121,0,32.569,2.959,46.102,8.775c13.537,5.813,25.272,13.961,34.893,24.534
	c9.733,10.575,17.128,22.845,22.416,37.013c5.285,14.165,7.93,29.502,7.93,46.097v95.589c0,12.163,3.598,22.21,10.797,29.925
	c7.182,7.725,17.128,11.638,29.926,11.638c16.595,0,30.767-5.501,42.396-16.603v54.986H4081.984z"/>
<path fill="#6C6C6C" d="M4505.251,665.75c-9.419,6.135-19.458,10.572-29.926,13.323c-10.574,2.744-21.049,4.119-31.622,4.119
	c-19.452,0-36.062-5.913-49.906-17.862c-13.858-11.949-23.049-26.756-27.495-44.521c-12.798,19.979-28.658,35.215-47.797,45.788
	c-19.131,10.573-40.277,15.762-63.648,15.762c-21.569,0-41.463-4.134-59.425-12.483c-17.985-8.359-33.524-19.353-46.536-33.305
	c-12.996-13.858-23.149-30.04-30.346-48.651c-7.189-18.604-10.779-38.384-10.779-59.424c0-21.037,3.589-40.926,10.779-59.428
	c7.197-18.612,17.352-34.896,30.346-49.062c13.013-14.167,28.552-25.384,46.536-33.727c17.962-8.354,37.855-12.483,59.425-12.483
	c22.201,0,42.401,4.759,60.684,14.165c18.305,9.421,33.846,23.269,46.534,41.566v-48.224h59.854v204.616
	c0,12.155,3.491,22.309,10.353,30.347c6.982,8.039,16.709,12.057,29.506,12.057c16.076,0,30.453-5.813,43.242-17.45v54.879
	L4505.251,665.75L4505.251,665.75z M4362.178,501.954c0-1.051-0.85-4.015-2.537-8.774c-1.696-4.762-3.072-7.613-4.126-8.776
	c-7.717-17.763-19.664-31.83-35.732-42.403c-16.082-10.574-33.848-15.757-53.197-15.757c-13.845,0-26.855,2.747-39.125,8.354
	c-12.156,5.505-22.729,13.012-31.607,22.42c-8.894,9.405-15.762,20.196-20.843,32.467c-4.966,12.151-7.501,25.269-7.501,39.124
	c0,13.322,2.535,26.216,7.501,38.693c4.981,12.484,11.949,23.264,20.843,32.47c8.879,9.093,19.338,16.495,31.607,21.989
	c12.162,5.501,25.165,8.358,39.125,8.358c19.35,0,37.115-5.288,53.197-15.762c16.066-10.575,28.016-24.419,35.732-41.555
	c1.171-1.047,2.544-4.116,4.126-9.198c1.688-4.965,2.537-8.03,2.537-9.197V501.954z"/>
<path fill="#6C6C6C" d="M4827.396,594.268c0,12.155-2.115,23.578-6.241,34.053c-4.125,10.573-9.939,19.878-17.45,27.812
	c-7.51,8.028-16.487,14.376-27.061,19.129c-10.581,4.76-21.897,7.098-34.053,7.098c-11.108,0-22.416-1.17-34.053-3.286
	c-11.627-2.223-22.202-6.34-31.613-12.476v-59.004c7.189,6.135,15.118,11.208,23.684,15.439c8.563,4.119,17.656,6.235,27.078,6.235
	c11.092,0,20.62-3.91,28.649-11.628c8.039-7.725,12.058-17.45,12.058-29.079c0-11.108-3.071-21.468-9.093-31.192
	c-6.134-9.726-13.012-19.25-20.841-28.659c-9.405-11.102-17.656-22.416-24.526-34.044c-6.976-11.641-10.358-24.639-10.358-39.129
	c0-19.352,4.651-36.48,14.165-51.176c9.412-14.704,22.735-25.908,39.973-33.735l33.311,43.248
	c-8.352,4.438-15.013,10.15-19.985,17.025c-4.974,6.984-7.51,15.121-7.51,24.536c0,9.408,2.643,18.291,7.93,26.645
	c5.287,8.352,11.521,17.234,18.72,26.643c8.884,11.112,17.343,23.481,25.372,37.007
	C4823.378,559.163,4827.396,575.45,4827.396,594.268z"/>
<path fill="#6C6C6C" d="M5197.154,528.606c0,21.035-3.59,40.918-10.779,59.421c-7.198,18.619-17.351,34.785-30.347,48.645
	c-13.019,13.851-28.559,24.959-46.634,33.303c-18.084,8.356-37.857,12.484-59.432,12.484c-22.739,0-43.244-4.858-61.543-14.594
	c-18.29-9.725-33.83-24.004-46.52-42.828V861.16h-59.853V381.302h59.853v49.916c12.788-18.826,28.229-33.104,46.52-42.834
	c18.299-9.727,38.804-14.589,61.543-14.589c21.574,0,41.453,4.13,59.432,12.483c17.977,8.354,33.516,19.56,46.634,33.727
	c12.996,14.166,23.148,30.45,30.347,49.062C5193.564,487.681,5197.154,507.458,5197.154,528.606z M5138.15,528.606
	c0-13.854-2.645-26.858-7.93-39.126c-5.287-12.165-12.371-23.062-21.254-32.465c-8.878-9.409-19.246-16.916-31.195-22.42
	c-11.948-5.494-24.846-8.354-38.704-8.354c-19.979,0-38.163,5.505-54.45,16.606c-16.389,11.101-28.446,25.487-36.161,43.246
	c-1.169,1.171-2.543,4.123-4.134,9.203c-1.688,4.966-2.528,8.034-2.528,9.095v47.368c0,1.697,0.841,4.866,2.528,9.52
	c1.697,4.758,3.072,7.609,4.134,8.779c7.718,17.762,19.772,32.148,36.161,43.241c16.387,11.102,34.472,16.61,54.45,16.61
	c13.858,0,26.756-2.759,38.704-8.358c11.949-5.501,22.317-12.904,31.195-21.988c8.883-9.206,15.967-19.993,21.254-32.471
	C5135.508,554.722,5138.15,541.824,5138.15,528.606z"/>
<path fill="#6C6C6C" d="M5644.21,665.75c-9.405,6.135-19.453,10.572-29.928,13.323c-10.572,2.744-21.041,4.119-31.613,4.119
	c-19.459,0-36.055-5.913-49.914-17.862c-13.843-11.949-23.049-26.756-27.488-44.521c-12.79,19.979-28.658,35.215-47.795,45.788
	c-19.14,10.573-40.287,15.762-63.658,15.762c-21.674,0-41.447-4.134-59.423-12.483c-17.977-8.359-33.518-19.353-46.536-33.305
	c-12.996-13.858-23.149-30.04-30.346-48.651c-7.188-18.604-10.779-38.384-10.779-59.424c0-21.037,3.592-40.926,10.779-59.428
	c7.199-18.612,17.352-34.896,30.346-49.062c13.019-14.167,28.561-25.384,46.536-33.727c17.978-8.354,37.855-12.483,59.423-12.483
	c22.203,0,42.403,4.759,60.702,14.165c18.29,9.421,33.83,23.269,46.519,41.566v-48.224h59.855v204.616
	c0,12.155,3.488,22.309,10.365,30.347c6.969,8.039,16.701,12.057,29.492,12.057c16.082,0,30.461-5.813,43.258-17.45v54.879
	L5644.21,665.75L5644.21,665.75z M5501.143,501.954c0-1.051-0.849-4.015-2.53-8.774c-1.696-4.762-3.07-7.613-4.134-8.776
	c-7.716-17.763-19.665-31.83-35.74-42.403c-16.066-10.574-33.837-15.757-53.189-15.757c-13.851,0-26.862,2.747-39.118,8.354
	c-12.162,5.505-22.736,13.012-31.62,22.42c-8.878,9.405-15.755,20.196-20.827,32.467c-4.973,12.151-7.518,25.269-7.518,39.124
	c0,13.322,2.545,26.216,7.518,38.693c4.965,12.484,11.949,23.264,20.827,32.47c8.884,9.093,19.351,16.495,31.62,21.989
	c12.156,5.501,25.167,8.358,39.118,8.358c19.353,0,37.123-5.288,53.189-15.762c16.074-10.575,28.024-24.419,35.74-41.555
	c1.063-1.047,2.538-4.116,4.134-9.198c1.682-4.965,2.53-8.03,2.53-9.197V501.954z"/>
<path fill="#6C6C6C" d="M6038.144,665.75c-9.405,6.135-19.453,10.358-29.928,12.896c-10.574,2.543-21.041,3.713-31.615,3.713
	c-12.797,0-24.111-2.545-34.043-7.511c-9.947-4.973-18.611-11.637-25.807-19.994c-7.191-8.352-12.578-17.977-16.174-29.079
	c-3.6-11.1-5.403-22.416-5.403-34.044v-96.436c0-20.521-5.386-37.329-16.166-50.332c-10.796-13.011-26.755-19.567-47.804-19.567
	c-9.932,0-19.451,2.333-28.229,7.083c-8.878,4.76-16.609,10.997-23.265,18.721c-6.662,7.713-11.949,16.916-15.761,27.489
	c-3.904,10.575-5.813,21.893-5.813,34.056v162.209h-59.838V381.302h59.838v43.247c8.891-16.068,20.841-28.543,35.739-37.434
	c15.013-8.881,31.622-13.32,49.921-13.32c17.129,0,32.57,2.959,46.094,8.775c13.644,5.813,25.28,13.961,34.906,24.534
	c9.725,10.575,17.235,22.845,22.407,37.013c5.287,14.165,7.933,29.502,7.933,46.097v95.589c0,12.163,3.604,22.21,10.787,29.925
	c7.189,7.725,17.129,11.638,29.927,11.638c16.593,0,30.774-5.501,42.401-16.603v54.986H6038.144z"/>
<path fill="#6C6C6C" d="M6168.613,219.198c0,12.794-4.546,23.688-13.744,32.89c-9.205,9.198-20.086,13.744-32.883,13.744
	c-12.798,0-23.586-4.546-32.463-13.744c-8.885-9.203-13.325-20.098-13.325-32.89c0-12.793,4.438-23.578,13.325-32.456
	c8.877-8.881,19.665-13.332,32.463-13.332c12.797,0,23.678,4.45,32.883,13.332C6164.067,195.623,6168.613,206.405,6168.613,219.198z
	 M6235.235,665.75c-8.894,6.135-18.617,10.358-29.078,12.896c-10.575,2.543-21.361,3.713-32.463,3.713
	c-12.798,0-24.113-2.545-34.052-7.511c-9.939-4.973-18.398-11.637-25.381-19.994c-6.984-8.352-12.369-17.977-16.181-29.079
	c-3.913-11.1-5.815-22.416-5.815-34.044V381.302h59.854v204.616c0,11.628,3.49,21.462,10.359,29.507
	c6.976,8.03,16.816,12.049,29.498,12.049c17.236,0,31.623-5.494,43.259-16.603V665.75L6235.235,665.75z"/>
<path fill="#6C6C6C" d="M6419.016,594.268c0,12.155-2.116,23.578-6.242,34.053c-4.125,10.573-9.938,19.878-17.451,27.812
	c-7.501,8.028-16.487,14.376-27.06,19.129c-10.574,4.76-21.897,7.098-34.061,7.098c-11.102,0-22.416-1.17-34.151-3.286
	c-11.636-2.223-22.21-6.34-31.614-12.476v-59.004c7.182,6.135,15.111,11.208,23.685,15.439c8.564,4.119,17.557,6.235,27.069,6.235
	c11.101,0,20.619-3.91,28.648-11.628c8.045-7.725,12.066-17.45,12.066-29.079c0-11.108-3.064-21.468-9.199-31.192
	c-6.135-9.726-13.011-19.25-20.842-28.659c-9.405-11.102-17.656-22.416-24.525-34.044c-6.984-11.641-10.367-24.639-10.367-39.129
	c0-19.352,4.76-36.48,14.179-51.176c9.405-14.704,22.729-25.908,39.86-33.735l33.311,43.248
	c-8.352,4.438-15.013,10.15-19.987,17.025c-4.966,6.984-7.51,15.121-7.51,24.536c0,9.408,2.644,18.291,7.93,26.645
	c5.287,8.352,11.529,17.234,18.726,26.643c8.877,11.112,17.334,23.481,25.366,37.007
	C6414.998,559.163,6419.016,575.45,6419.016,594.268z"/>
<path fill="#6C6C6C" d="M6829.726,665.75c-9.411,6.135-19.458,10.358-29.925,12.896c-10.575,2.543-21.041,3.713-31.616,3.713
	c-12.789,0-24.111-2.545-34.051-7.511c-9.939-4.973-18.613-11.637-25.801-19.994c-7.183-8.352-12.582-17.977-16.182-29.079
	c-3.591-11.1-5.385-22.416-5.385-34.044v-96.436c0-19.981-5.386-36.485-16.184-49.485c-10.779-13.011-26.756-19.571-47.787-19.571
	c-8.894,0-17.664,2.116-26.229,6.239c-8.562,4.129-16.387,10.149-23.263,17.873c-6.983,7.725-12.585,17.235-17.022,28.234
	c-4.438,11.101-6.662,23.585-6.662,37.431v158.831h-59.853V84.49h59.853v339.325c9.41-15.551,21.576-27.707,36.586-36.583
	c15.014-8.882,31.303-13.333,49.057-13.333c17.236,0,32.578,3.068,46.217,9.199c13.537,6.134,25.266,14.283,34.891,24.534
	c9.727,10.253,17.131,22.42,22.416,36.589c5.287,14.165,7.93,29.502,7.93,46.104v95.594c0,12.153,3.494,22.2,10.361,29.927
	c6.876,7.716,16.709,11.627,29.508,11.627c17.129,0,31.611-5.493,43.256-16.602v54.879H6829.726z"/>
<g>
	<path fill="#F05959" d="M529.561,325.533v-44.861c0-10.719,0.773-21.214,2.209-31.545
		c-88.449,20.717-154.362,100.11-154.362,194.916c0,0,0,58.451,0,218.281s-0.331,21.931,154.309,21.931c31.71,0,223.754,0,223.754,0
		c87.456,0,161.821-56.132,189.114-134.303H753.978C630.057,550.004,529.561,449.508,529.561,325.533z"/>
	<path fill="#F05959" d="M1142.866,283.104c0-110.607-89.667-200.219-200.217-200.219H764.75
		c-110.547,0-200.162,89.612-200.162,200.219v40.056c0,110.551,89.614,200.216,200.22,200.216c0,0,192.04,0,223.754,0
		c154.637,0,154.304,137.843,154.304-21.932C1142.866,341.553,1142.866,283.104,1142.866,283.104z"/>
</g>
</svg>
