<?xml version="1.0" encoding="utf-8"?>
<!-- Generator: Adobe Illustrator 16.0.0, SVG Export Plug-In . SVG Version: 6.00 Build 0)  -->
<!DOCTYPE svg PUBLIC "-//W3C//DTD SVG 1.1//EN" "http://www.w3.org/Graphics/SVG/1.1/DTD/svg11.dtd">
<svg version="1.1" xmlns="http://www.w3.org/2000/svg" xmlns:xlink="http://www.w3.org/1999/xlink" x="0px" y="0px" width="1024px"
	 height="1024px" viewBox="0 0 1024 1024" enable-background="new 0 0 1024 1024" xml:space="preserve">
<g id="Layer_1">
	<path d="M6.04,929.11c0,0-8.27,11.88,0.52,27.1c8.79,15.23,23.21,14,23.21,14h964.05c0,0,14.42,1.23,23.21-14
		c8.79-15.23,0.52-27.1,0.52-27.1L535.74,93.98c0,0-6.15-13.1-23.73-13.1c-17.59,0-23.73,13.1-23.73,13.1L6.04,929.11z
		 M852.82,870.36H171.19l340.82-590.31L852.82,870.36z"/>
</g>
<g id="Layer_3" display="none">
	<g display="inline">
		<path d="M513.54,466.91c27,0,47.43,9.69,61.28,29.05c11.01,15.28,16.52,33.22,16.52,53.82c0,34.46-15.61,67.24-46.83,98.32
			c-10.88,10.84-16.68,23.45-17.39,37.84c-0.36,4.8-0.54,10.13-0.54,15.99v19.98h-50.36v-19.98c0-31.44,7.72-54.8,23.18-70.08
			c16.7-16.52,28.16-33.48,34.37-50.89c3.55-10.13,5.33-20.78,5.33-31.98c0-11.54-2.58-20.6-7.72-27.18
			c-5.69-7.64-13.95-10.74-24.78-9.33c-10.13,1.24-17.41,8.26-21.85,21.05c-1.95,5.33-3.29,11.55-3.99,18.65l-48.49-8.53
			c1.77-20.78,8.7-38.28,20.78-52.49c8.17-9.59,19.54-16.52,34.11-20.78C494.79,468.07,503.58,466.91,513.54,466.91z M476.23,756.81
			h50.36v50.63h-50.36V756.81z"/>
	</g>
</g>
<g id="Layer_2">
	<g>
		<path d="M486.02,657.37V466.08h51.57v191.29l-3.82,66.04h-43.93L486.02,657.37z M486.02,808.27v-51.85h51.57v51.85H486.02z"/>
	</g>
</g>
</svg>
