<?xml version="1.0" encoding="utf-8"?>
<!-- Generator: Adobe Illustrator 16.0.0, SVG Export Plug-In . SVG Version: 6.00 Build 0)  -->
<!DOCTYPE svg PUBLIC "-//W3C//DTD SVG 1.1//EN" "http://www.w3.org/Graphics/SVG/1.1/DTD/svg11.dtd">
<svg version="1.1" id="Layer_1" xmlns="http://www.w3.org/2000/svg" xmlns:xlink="http://www.w3.org/1999/xlink" x="0px" y="0px"
	 width="1000px" height="1000px" viewBox="0 0 1000 1000" enable-background="new 0 0 1000 1000" xml:space="preserve">
<g>
	<path fill="#F15B5A" d="M198.91,388.076v-58.607c0-14.003,1.011-27.714,2.886-41.211C86.247,315.323,0.137,419.042,0.137,542.898
		c0,0,0,76.36,0,285.164c0,208.803-0.433,28.649,201.59,28.649c41.426,0,292.314,0,292.314,0
		c114.254,0,211.404-73.33,247.061-175.454h-249.01C330.199,681.326,198.91,550.038,198.91,388.076z"/>
	<path fill="#F15B5A" d="M1000.137,332.646c0-144.498-117.141-261.568-261.564-261.568H506.164
		c-144.42,0-261.494,117.07-261.494,261.568v52.33c0,144.424,117.073,261.563,261.569,261.563c0,0,250.882,0,292.314,0
		c202.019,0,201.583,180.079,201.583-28.652C1000.137,409.005,1000.137,332.646,1000.137,332.646z"/>
</g>
</svg>
